<?xml version="1.0" encoding="utf-8"?>
<!-- Generator: Adobe Illustrator 27.5.0, SVG Export Plug-In . SVG Version: 6.00 Build 0)  -->
<svg version="1.1" xmlns="http://www.w3.org/2000/svg" xmlns:xlink="http://www.w3.org/1999/xlink" x="0px" y="0px"
	 viewBox="0 0 500 500" style="enable-background:new 0 0 500 500;" xml:space="preserve">
<g id="Background">
	<rect style="fill-opacity:0%;" width="500" height="500"/>
	<g style="opacity:0.1;">
		<g>
			<g>
				<path style="fill:#A7A9AC;" d="M232.811,349.647v-9.368l-2.342,1.478c-0.142,0.094-0.362,0.235-0.551,0.235
					c-0.314,0-0.377-0.283-0.377-0.472c0-0.078,0.016-0.141,0.016-0.141l3.395-2.184c0.377-0.253,0.597-0.315,0.833-0.315
					c0.267,0,0.44,0.204,0.503,0.503v10.247h2.106c0.377,0,0.566,0.22,0.566,0.472c0,0.251-0.141,0.346-0.141,0.346h-6.334
					c-0.377,0-0.566-0.204-0.566-0.456s0.142-0.346,0.142-0.346H232.811z"/>
				<path style="fill:#A7A9AC;" d="M246.142,343.878c0,4.118-3.74,7.577-7.482,7.577c-0.346,0-0.503-0.204-0.503-0.346
					c0-0.19,0.157-0.299,0.157-0.299c0.126,0,0.268,0.015,0.424,0.015c2.374,0,5.564-2.672,5.973-5.594
					c-0.613,0.738-1.556,1.209-2.813,1.209c-2.908,0-3.725-2.074-3.725-3.756c0-2.09,1.477-3.599,3.977-3.599
					C244.319,339.085,246.142,340.5,246.142,343.878z M239.462,342.794c0,1.572,0.801,2.876,2.389,2.876
					c2.059,0,2.955-1.289,2.955-3.034c0-1.509-1.163-2.924-2.688-2.924C240.547,339.713,239.462,340.892,239.462,342.794z"/>
				<path style="fill:#A7A9AC;" d="M247.23,347.1c0-2.577,2.122-3.159,2.279-3.206c-0.173-0.031-1.854-0.472-1.854-2.468
					c0-2.028,1.665-3.034,4.165-3.034c2.468,0,4.102,1.022,4.102,3.034c0,2.043-1.76,2.452-1.855,2.468
					c0.157,0.047,2.279,0.629,2.279,3.206c0,2.357-2.028,3.647-4.557,3.647C249.258,350.747,247.23,349.457,247.23,347.1z
					 M254.9,347.1c0-1.902-1.399-2.924-3.112-2.924c-1.714,0-3.113,1.022-3.113,2.924c0,2.028,1.446,3.018,3.143,3.018
					C253.517,350.118,254.9,349.128,254.9,347.1z M251.804,339.022c-1.54,0-2.703,0.754-2.703,2.405
					c0,1.147,0.849,2.122,2.688,2.122c1.822,0,2.687-0.975,2.687-2.122C254.476,339.792,253.328,339.022,251.804,339.022z"/>
				<path style="fill:#A7A9AC;" d="M264.885,349.584v-1.76c-1.431-0.346-2.499-1.147-3.882-1.147c-0.172,0-0.346,0.015-0.487,0.031
					c-0.55,0.691-1.21,0.928-2.075,1.038c0,0-0.094-0.142-0.094-0.331c0-0.534,0.534-0.959,1.321-1.178
					c1.053-1.243,1.272-4.512,1.272-5.863c0-0.204,0.032-0.55,0.488-0.55c0.44,0,0.503,0.378,0.503,0.566
					c0,1.116-0.063,3.866-1.006,5.658h0.204c1.619,0,2.499,0.582,3.709,0.849v-6.191c0-1.116,0.534-1.541,0.896-1.541
					c0.393,0,0.519,0.157,0.566,0.157v7.702c0.723-0.047,1.131-0.425,1.131-1.132c0-0.36-0.109-0.487-0.109-0.487
					s0.094-0.235,0.487-0.235c0.409,0,0.566,0.362,0.566,0.974c0,1.116-0.801,1.76-2.059,1.823v1.603h1.115
					c0.378,0,0.566,0.22,0.566,0.472c0,0.251-0.141,0.346-0.141,0.346h-4.228c-0.377,0-0.566-0.204-0.566-0.456
					s0.142-0.346,0.142-0.346H264.885z"/>
			</g>
			<g>
				<path style="fill:#A7A9AC;" d="M220.925,322.312h2.374v1.571h-2.374v3.222h2.987v1.572h-4.715v-11.002h4.715v1.571h-2.987
					V322.312z"/>
				<path style="fill:#A7A9AC;" d="M227.309,317.549c1.682,0,2.546,1.006,2.546,2.766v0.346h-1.635v-0.456
					c0-0.785-0.314-1.084-0.864-1.084c-0.551,0-0.865,0.299-0.865,1.084c0,2.263,3.379,2.688,3.379,5.832
					c0,1.759-0.88,2.765-2.578,2.765c-1.697,0-2.577-1.006-2.577-2.765v-0.676h1.635v0.785c0,0.787,0.346,1.069,0.896,1.069
					c0.55,0,0.896-0.283,0.896-1.069c0-2.263-3.379-2.687-3.379-5.831C224.763,318.555,225.627,317.549,227.309,317.549z"/>
				<path style="fill:#A7A9AC;" d="M230.361,317.675h5.344v1.571h-1.807v9.431h-1.729v-9.431h-1.807V317.675z"/>
				<path style="fill:#A7A9AC;" d="M241.46,328.677h-1.745l-0.299-1.996h-2.122l-0.299,1.996h-1.588l1.76-11.002h2.531
					L241.46,328.677z M237.514,325.187h1.666l-0.833-5.563L237.514,325.187z"/>
				<path style="fill:#A7A9AC;" d="M247.434,320.205v0.394c0,1.131-0.346,1.854-1.116,2.216c0.927,0.361,1.289,1.194,1.289,2.357
					v0.896c0,1.697-0.896,2.609-2.625,2.609h-2.719v-11.002h2.609C246.664,317.675,247.434,318.507,247.434,320.205z
					 M243.992,319.246v2.909h0.676c0.645,0,1.038-0.284,1.038-1.163v-0.613c0-0.785-0.267-1.132-0.88-1.132H243.992z
					 M243.992,323.725v3.379h0.99c0.582,0,0.896-0.266,0.896-1.084v-0.959c0-1.022-0.33-1.337-1.115-1.337H243.992z"/>
				<path style="fill:#A7A9AC;" d="M248.647,317.675h1.729v9.43h2.845v1.572h-4.574V317.675z"/>
				<path style="fill:#A7A9AC;" d="M253.978,317.675h1.728v11.002h-1.728V317.675z"/>
				<path style="fill:#A7A9AC;" d="M259.291,317.549c1.682,0,2.547,1.006,2.547,2.766v0.346h-1.635v-0.456
					c0-0.785-0.315-1.084-0.865-1.084s-0.863,0.299-0.863,1.084c0,2.263,3.378,2.688,3.378,5.832c0,1.759-0.88,2.765-2.577,2.765
					c-1.698,0-2.578-1.006-2.578-2.765v-0.676h1.634v0.785c0,0.787,0.346,1.069,0.896,1.069c0.551,0,0.897-0.283,0.897-1.069
					c0-2.263-3.379-2.687-3.379-5.831C256.745,318.555,257.61,317.549,259.291,317.549z"/>
				<path style="fill:#A7A9AC;" d="M264.574,328.677h-1.729v-11.002h1.729v4.715h1.965v-4.715h1.76v11.002h-1.76v-4.715h-1.965
					V328.677z"/>
				<path style="fill:#A7A9AC;" d="M271.288,322.312h2.374v1.571h-2.374v3.222h2.987v1.572h-4.716v-11.002h4.716v1.571h-2.987
					V322.312z"/>
				<path style="fill:#A7A9AC;" d="M275.347,317.675h2.734c1.729,0,2.578,0.959,2.578,2.719v5.563c0,1.76-0.849,2.719-2.578,2.719
					h-2.734V317.675z M277.075,319.246v7.859h0.975c0.55,0,0.879-0.282,0.879-1.068v-5.722c0-0.785-0.329-1.069-0.879-1.069H277.075
					z"/>
			</g>
		</g>
		<g>
			<path style="fill:#A7A9AC;" d="M167.977,291.167l-0.005-8.252l0.538,0.056l0.005,7.757l2.566,0.267l0.001,0.496L167.977,291.167z
				"/>
			<path style="fill:#A7A9AC;" d="M171.845,285.335c-0.001-1.202,0.548-2.028,1.784-1.899c1.26,0.131,1.809,1.073,1.809,2.276
				l0.003,4.219c0.001,1.203-0.547,2.029-1.807,1.898c-1.236-0.129-1.786-1.07-1.786-2.272L171.845,285.335z M172.385,289.647
				c0.001,0.896,0.351,1.593,1.249,1.686c0.91,0.095,1.272-0.527,1.271-1.422l-0.003-4.291c-0.001-0.896-0.362-1.594-1.272-1.69
				c-0.898-0.093-1.248,0.53-1.247,1.426L172.385,289.647z"/>
			<path style="fill:#A7A9AC;" d="M178.026,283.966c1.249,0.13,1.751,0.878,1.752,2.045l0.001,0.719
				c0.001,0.967-0.373,1.482-1.178,1.587c0.84,0.276,1.179,0.913,1.179,1.809l0.001,1.285c0,0.342,0.023,0.721,0.199,1.011
				l-0.56-0.058c-0.141-0.263-0.176-0.56-0.176-1.008l-0.001-1.297c-0.001-1.096-0.595-1.464-1.529-1.562l-0.852-0.089l0.003,3.69
				l-0.536-0.057l-0.006-8.252L178.026,283.966z M177.726,288.001c0.956,0.1,1.516-0.113,1.516-1.22l-0.001-0.778
				c-0.001-0.884-0.339-1.451-1.226-1.543l-1.155-0.12l0.002,3.573L177.726,288.001z"/>
			<path style="fill:#A7A9AC;" d="M183.593,288.366l0.001,0.496l-2.228-0.233l0.002,3.443l2.683,0.28l0.001,0.495l-3.22-0.337
				l-0.006-8.251l3.22,0.336l0.001,0.496l-2.683-0.28l0.002,3.324L183.593,288.366z"/>
			<path style="fill:#A7A9AC;" d="M187.667,293.213l-0.536-0.056l-1.732-7.477l0.005,7.309l-0.478-0.051l-0.005-8.251l0.77,0.081
				l1.72,7.476l1.698-7.118l0.77,0.079l0.006,8.252l-0.514-0.053l-0.005-7.331L187.667,293.213z"/>
			<path style="fill:#A7A9AC;" d="M193.156,285.547l0.006,8.252l-0.536-0.056l-0.006-8.251L193.156,285.547z"/>
			<path style="fill:#A7A9AC;" d="M195.78,285.821c1.26,0.131,1.751,0.985,1.752,2.186l0.001,0.897
				c0.001,1.308-0.594,1.894-1.889,1.759l-1.015-0.107l0.003,3.396l-0.536-0.056l-0.005-8.251L195.78,285.821z M195.643,290.168
				c0.945,0.099,1.353-0.283,1.352-1.285l-0.001-0.966c-0.001-0.897-0.303-1.506-1.214-1.6l-1.154-0.121l0.002,3.868
				L195.643,290.168z"/>
			<path style="fill:#A7A9AC;" d="M201.777,288.44l0.001,0.177l-0.513-0.053l-0.001-0.213c-0.001-0.872-0.327-1.567-1.213-1.659
				c-0.887-0.093-1.213,0.521-1.213,1.394c0.001,2.004,2.953,2.348,2.955,4.623c0.001,1.19-0.512,2.009-1.761,1.878
				c-1.248-0.13-1.762-1.055-1.763-2.246l-0.001-0.425l0.514,0.053l0.001,0.46c0.001,0.884,0.339,1.556,1.237,1.65
				c0.898,0.094,1.237-0.507,1.236-1.391c-0.001-1.98-2.953-2.324-2.955-4.623c-0.001-1.238,0.535-1.983,1.737-1.869
				C201.275,286.325,201.776,287.249,201.777,288.44z"/>
			<path style="fill:#A7A9AC;" d="M203.167,292.852c0.001,0.883,0.328,1.602,1.226,1.696c0.899,0.093,1.225-0.556,1.225-1.441
				l-0.004-6.258l0.501,0.052l0.004,6.236c0.001,1.178-0.489,2.034-1.737,1.904c-1.248-0.13-1.75-1.09-1.751-2.268l-0.004-6.236
				l0.536,0.056L203.167,292.852z"/>
			<path style="fill:#A7A9AC;" d="M209.784,295.523l-0.537-0.056l-1.731-7.477l0.005,7.309l-0.478-0.051l-0.005-8.25l0.77,0.079
				l1.72,7.476l1.698-7.118l0.771,0.081l0.006,8.252l-0.514-0.055l-0.005-7.331L209.784,295.523z"/>
			<path style="fill:#A7A9AC;" d="M216.532,287.989c1.26,0.132,1.809,1.026,1.81,2.241l0.003,4.149
				c0.001,1.214-0.547,1.995-1.807,1.862l-1.796-0.187l-0.006-8.252L216.532,287.989z M216.524,295.745
				c0.911,0.095,1.283-0.492,1.283-1.399l-0.003-4.197c-0.001-0.907-0.385-1.572-1.285-1.666l-1.248-0.131l0.004,7.262
				L216.524,295.745z"/>
			<path style="fill:#A7A9AC;" d="M219.191,290.283c-0.001-1.203,0.548-2.029,1.785-1.9c1.26,0.131,1.809,1.073,1.81,2.276
				l0.003,4.221c0.001,1.202-0.547,2.028-1.807,1.897c-1.237-0.129-1.786-1.07-1.787-2.273L219.191,290.283z M219.732,294.594
				c0.001,0.896,0.35,1.593,1.249,1.687c0.91,0.094,1.272-0.528,1.271-1.423l-0.003-4.291c-0.001-0.896-0.362-1.594-1.272-1.688
				c-0.898-0.094-1.248,0.529-1.247,1.425L219.732,294.594z"/>
			<path style="fill:#A7A9AC;" d="M223.677,296.986l-0.006-8.252l0.536,0.057l0.005,7.756l2.567,0.269l0.001,0.494L223.677,296.986z
				"/>
			<path style="fill:#A7A9AC;" d="M227.544,291.155c-0.001-1.203,0.547-2.029,1.784-1.9c1.26,0.133,1.809,1.073,1.81,2.276
				l0.003,4.22c0.001,1.202-0.547,2.029-1.807,1.897c-1.237-0.129-1.786-1.07-1.786-2.272L227.544,291.155z M228.084,295.467
				c0.001,0.896,0.35,1.592,1.249,1.686c0.91,0.095,1.272-0.528,1.271-1.423l-0.003-4.291c-0.001-0.896-0.362-1.593-1.272-1.688
				c-0.898-0.094-1.248,0.53-1.247,1.426L228.084,295.467z"/>
			<path style="fill:#A7A9AC;" d="M233.725,289.785c1.248,0.131,1.751,0.879,1.752,2.046l0.001,0.719
				c0.001,0.966-0.374,1.482-1.178,1.586c0.84,0.276,1.179,0.914,1.179,1.809l0.001,1.286c0,0.342,0.022,0.721,0.198,1.011
				l-0.56-0.06c-0.141-0.261-0.175-0.56-0.175-1.008l-0.001-1.296c-0.001-1.096-0.596-1.465-1.529-1.563l-0.852-0.089l0.002,3.69
				l-0.536-0.056l-0.006-8.252L233.725,289.785z M233.424,293.821c0.956,0.099,1.517-0.113,1.516-1.221l-0.001-0.778
				c-0.001-0.883-0.339-1.449-1.225-1.542l-1.156-0.121l0.002,3.573L233.424,293.821z"/>
			<path style="fill:#A7A9AC;" d="M241.776,292.618l0.001,0.177l-0.514-0.053l-0.001-0.213c-0.001-0.872-0.327-1.566-1.213-1.659
				c-0.887-0.093-1.213,0.522-1.213,1.394c0.001,2.004,2.953,2.349,2.955,4.623c0.001,1.19-0.513,2.009-1.761,1.879
				c-1.248-0.131-1.762-1.057-1.763-2.247l-0.001-0.424l0.514,0.053l0.001,0.46c0.001,0.883,0.338,1.556,1.236,1.65
				c0.899,0.093,1.238-0.508,1.237-1.392c-0.001-1.98-2.954-2.324-2.956-4.623c-0.001-1.238,0.536-1.982,1.737-1.868
				C241.273,290.503,241.775,291.427,241.776,292.618z"/>
			<path style="fill:#A7A9AC;" d="M243.185,290.773l0.006,8.251l-0.536-0.056l-0.006-8.252L243.185,290.773z"/>
			<path style="fill:#A7A9AC;" d="M245.501,299.267l-0.005-7.757l-1.656-0.172l-0.001-0.495l3.861,0.404l0.001,0.494l-1.669-0.173
				l0.005,7.756L245.501,299.267z"/>
			<path style="fill:#A7A9AC;" d="M250.957,298.009l-0.406,1.785l-0.491-0.051l1.78-8.077l0.782,0.081l1.825,8.453l-0.536-0.056
				l-0.41-1.869L250.957,298.009z M251.039,297.547l2.38,0.248l-1.205-5.464L251.039,297.547z"/>
			<path style="fill:#A7A9AC;" d="M258.005,300.561l-0.538-0.056l-1.731-7.477l0.005,7.309l-0.478-0.051l-0.005-8.252l0.771,0.081
				l1.719,7.476l1.697-7.118l0.771,0.079l0.005,8.253l-0.514-0.055l-0.004-7.331L258.005,300.561z"/>
			<path style="fill:#A7A9AC;" d="M263.916,296.758v0.496l-2.23-0.233l0.003,3.443l2.684,0.28v0.496l-3.22-0.337l-0.005-8.252
				l3.22,0.337v0.494l-2.685-0.28l0.003,3.324L263.916,296.758z"/>
			<path style="fill:#A7A9AC;" d="M266.624,301.474l-0.005-7.757l-1.658-0.173v-0.494l3.862,0.403v0.496l-1.669-0.175l0.005,7.757
				L266.624,301.474z"/>
			<path style="fill:#A7A9AC;" d="M269.086,301.73l-0.175-0.018v-1.037l0.513,0.053v0.991l-0.337,0.907l-0.233-0.025L269.086,301.73
				z"/>
			<path style="fill:#A7A9AC;" d="M275.65,296.181l0.001,0.684l-0.514-0.053l-0.001-0.72c0-0.883-0.338-1.591-1.236-1.685
				c-0.899-0.094-1.236,0.543-1.236,1.427l0.003,4.291c0.001,0.883,0.339,1.579,1.239,1.674c0.898,0.093,1.235-0.531,1.234-1.416
				v-0.979l0.514,0.054v0.943c0.001,1.19-0.513,2.033-1.76,1.902c-1.249-0.13-1.762-1.079-1.763-2.27l-0.003-4.221
				c0-1.19,0.512-2.033,1.76-1.903C275.135,294.041,275.65,294.99,275.65,296.181z"/>
			<path style="fill:#A7A9AC;" d="M276.488,296.269c0-1.203,0.547-2.029,1.785-1.9c1.26,0.133,1.81,1.073,1.81,2.276l0.003,4.22
				c0.001,1.202-0.547,2.029-1.807,1.897c-1.237-0.129-1.786-1.07-1.788-2.272L276.488,296.269z M277.028,300.58
				c0.001,0.897,0.352,1.593,1.25,1.687c0.911,0.095,1.271-0.528,1.27-1.423l-0.002-4.291c0-0.896-0.362-1.593-1.272-1.689
				c-0.898-0.094-1.247,0.53-1.247,1.425L277.028,300.58z"/>
			<path style="fill:#A7A9AC;" d="M281.463,303.024l-0.489-0.051l-0.005-8.251l0.7,0.073l2.454,7.222l-0.005-6.967l0.49,0.052
				l0.005,8.251l-0.596-0.063l-2.558-7.622L281.463,303.024z"/>
			<path style="fill:#A7A9AC;" d="M288.971,297.548v0.177l-0.514-0.053v-0.212c0-0.872-0.328-1.567-1.214-1.66
				c-0.887-0.092-1.212,0.523-1.212,1.395c0.001,2.004,2.952,2.347,2.953,4.622c0.001,1.19-0.512,2.009-1.76,1.879
				c-1.247-0.13-1.761-1.057-1.763-2.247v-0.424l0.514,0.053v0.46c0.001,0.884,0.338,1.556,1.236,1.65
				c0.898,0.094,1.238-0.508,1.236-1.391c-0.001-1.981-2.953-2.325-2.955-4.623c0-1.238,0.536-1.983,1.737-1.869
				C288.468,295.434,288.971,296.358,288.971,297.548z"/>
			<path style="fill:#A7A9AC;" d="M292.612,299.756v0.496l-2.23-0.233l0.003,3.443l2.684,0.28v0.496l-3.22-0.337l-0.005-8.252
				l3.22,0.337v0.494l-2.685-0.28l0.003,3.324L292.612,299.756z"/>
			<path style="fill:#A7A9AC;" d="M297.427,298.456l0.001,0.684l-0.513-0.055l-0.001-0.719c0-0.884-0.339-1.592-1.238-1.685
				c-0.898-0.094-1.235,0.543-1.235,1.426l0.002,4.291c0.001,0.884,0.339,1.579,1.238,1.674c0.898,0.094,1.236-0.531,1.235-1.415
				v-0.979l0.513,0.053v0.944c0.001,1.19-0.512,2.032-1.76,1.901c-1.247-0.13-1.762-1.08-1.763-2.269l-0.003-4.222
				c0-1.189,0.513-2.032,1.76-1.902C296.913,296.316,297.427,297.266,297.427,298.456z"/>
			<path style="fill:#A7A9AC;" d="M299.683,304.928l-0.005-7.757l-1.656-0.173v-0.494l3.861,0.403v0.496l-1.669-0.175l0.005,7.757
				L299.683,304.928z"/>
			<path style="fill:#A7A9AC;" d="M305.314,301.084v0.496l-2.229-0.233l0.003,3.441l2.683,0.281v0.494l-3.22-0.336l-0.005-8.253
				l3.22,0.337v0.496l-2.683-0.281l0.003,3.325L305.314,301.084z"/>
			<path style="fill:#A7A9AC;" d="M308.022,305.799l-0.005-7.757l-1.658-0.172v-0.496l3.862,0.404v0.494l-1.667-0.173l0.005,7.756
				L308.022,305.799z"/>
			<path style="fill:#A7A9AC;" d="M311.404,304.16c0.001,0.885,0.328,1.602,1.228,1.696c0.898,0.094,1.224-0.556,1.223-1.44
				l-0.004-6.26l0.502,0.052l0.004,6.236c0.001,1.179-0.489,2.035-1.737,1.905c-1.249-0.131-1.75-1.09-1.752-2.27l-0.004-6.236
				l0.536,0.056L311.404,304.16z"/>
			<path style="fill:#A7A9AC;" d="M318.04,302.413v0.496l-2.229-0.233l0.002,3.441l2.683,0.281v0.494l-3.22-0.336l-0.005-8.252
				l3.22,0.336v0.496l-2.683-0.281l0.002,3.325L318.04,302.413z"/>
			<path style="fill:#A7A9AC;" d="M321.07,298.911c1.247,0.13,1.752,0.878,1.752,2.045v0.719c0.001,0.967-0.373,1.482-1.178,1.587
				c0.84,0.276,1.18,0.913,1.18,1.809l0.001,1.285c0,0.342,0.022,0.721,0.197,1.011l-0.56-0.058c-0.14-0.263-0.175-0.56-0.175-1.008
				l-0.001-1.297c0-1.096-0.596-1.465-1.529-1.562l-0.852-0.089l0.003,3.689l-0.536-0.056l-0.005-8.251L321.07,298.911z
				 M320.769,302.946c0.956,0.1,1.516-0.113,1.516-1.22l-0.001-0.778c0-0.884-0.339-1.451-1.225-1.543l-1.156-0.12l0.002,3.572
				L320.769,302.946z"/>
		</g>
		<g>
			<path style="fill:#A7A9AC;" d="M160.133,266.607c-0.32-1.034-0.533-1.667-0.508-4.823l0.049-6.09
				c0.029-3.599-1.165-5.063-3.899-5.373l-2.078-0.235l-0.127,15.777l-6.018-0.681l0.312-38.75l9.081,1.028
				c6.236,0.707,8.892,3.942,8.844,9.922l-0.025,3.044c-0.032,3.986-1.311,6.445-4.001,7.415c2.999,1.613,3.96,4.659,3.927,8.7
				l-0.048,5.978c-0.015,1.883,0.027,3.273,0.618,4.781L160.133,266.607z M153.838,232.65l-0.096,11.902l2.351,0.266
				c2.243,0.254,3.618-0.588,3.643-3.688l0.031-3.82c0.022-2.768-0.898-4.09-3.031-4.332L153.838,232.65z"/>
			<path style="fill:#A7A9AC;" d="M175.739,245.934l8.26,0.935l-0.045,5.535l-8.26-0.935l-0.092,11.348l10.393,1.177l-0.045,5.536
				l-16.41-1.858l0.312-38.749l16.41,1.858l-0.045,5.535l-10.393-1.177L175.739,245.934z"/>
			<path style="fill:#A7A9AC;" d="M198.08,231.676c5.853,0.663,8.833,4.546,8.783,10.746l-0.01,1.218l-5.687-0.644l0.013-1.605
				c0.022-2.768-1.065-3.944-2.979-4.16c-1.915-0.217-3.017,0.71-3.039,3.479c-0.064,7.972,11.685,10.797,11.596,21.868
				c-0.05,6.2-3.142,9.396-9.049,8.727c-5.907-0.669-8.942-4.559-8.892-10.759l0.019-2.38l5.688,0.644l-0.022,2.767
				c-0.022,2.768,1.173,3.901,3.088,4.118c1.914,0.217,3.125-0.644,3.147-3.412c0.064-7.972-11.684-10.797-11.594-21.87
				C189.191,234.214,192.227,231.013,198.08,231.676z"/>
			<path style="fill:#A7A9AC;" d="M208.686,233.32l18.598,2.107l-0.045,5.535l-6.289-0.712l-0.268,33.214l-6.017-0.681l0.268-33.214
				l-6.292-0.713L208.686,233.32z"/>
			<path style="fill:#A7A9AC;" d="M246.992,276.443l-6.071-0.688l-0.982-7.149l-7.384-0.836l-1.096,6.914l-5.524-0.626l6.438-38.056
				l8.807,0.997L246.992,276.443z M233.362,262.599l5.799,0.656l-2.741-19.924L233.362,262.599z"/>
			<path style="fill:#A7A9AC;" d="M255.836,238.66l-0.24,29.892c-0.022,2.767,1.173,3.901,3.087,4.118
				c1.915,0.217,3.127-0.644,3.149-3.412l0.24-29.892l5.69,0.644l-0.238,29.504c-0.05,6.2-3.143,9.396-9.049,8.727
				c-5.908-0.669-8.943-4.559-8.893-10.759l0.238-29.504L255.836,238.66z"/>
			<path style="fill:#A7A9AC;" d="M284.131,280.649c-0.32-1.034-0.533-1.667-0.508-4.823l0.049-6.09
				c0.028-3.598-1.164-5.063-3.898-5.373l-2.079-0.235l-0.128,15.777l-6.018-0.681l0.312-38.749l9.08,1.028
				c6.236,0.706,8.892,3.943,8.844,9.922l-0.025,3.044c-0.032,3.986-1.311,6.445-4,7.417c2.998,1.613,3.959,4.658,3.927,8.699
				l-0.048,5.978c-0.015,1.883,0.029,3.273,0.618,4.78L284.131,280.649z M277.835,246.691l-0.095,11.902l2.351,0.266
				c2.243,0.254,3.618-0.588,3.643-3.688l0.031-3.82c0.022-2.767-0.898-4.09-3.031-4.332L277.835,246.691z"/>
			<path style="fill:#A7A9AC;" d="M313.011,283.919l-6.07-0.688l-0.984-7.149l-7.384-0.836l-1.095,6.914l-5.525-0.626l6.438-38.056
				l8.807,0.997L313.011,283.919z M299.38,270.074l5.799,0.658l-2.741-19.925L299.38,270.074z"/>
			<path style="fill:#A7A9AC;" d="M321.386,256.776l-0.225,28.066l-5.415-0.613l0.312-38.749l7.548,0.855l5.994,23.894l0.187-23.194
				l5.361,0.607l-0.312,38.749l-6.182-0.7L321.386,256.776z"/>
			<path style="fill:#A7A9AC;" d="M337.717,247.932l18.598,2.106l-0.045,5.535l-6.291-0.712l-0.268,33.214l-6.017-0.681
				l0.268-33.214l-6.291-0.712L337.717,247.932z"/>
		</g>
	</g>
	<path style="opacity:0.1;fill:#A7A9AC;" d="M448.859,265.751l-60.535-6.759l0.119-12.094l-21.198-2.439v-37.914
		c0-2.478-0.284-4.918-0.804-7.29c8.263-2.118,16.383-5.131,23.397-10.228c11.076-8.048,17.112-20.599,15.377-31.976
		c-2.49-16.328-19.238-26.354-34.73-29.047c-0.9-0.156-1.809-0.299-2.722-0.442c-2.858-0.447-5.616-0.883-8.116-1.733
		c-0.181-0.105-0.379-0.183-0.593-0.221c-1.348-0.505-2.621-1.133-3.777-1.981c-3.081-2.262-5.006-5.742-7.044-9.427
		c-2.037-3.684-4.143-7.493-7.57-10.243c-6.696-5.374-15.272-4.646-23.557-3.942c-6.174,0.523-12.562,1.065-17.97-0.979
		c-6.352-2.401-10.632-7.905-15.163-13.731c-0.096-0.123-0.194-0.248-0.29-0.371l0-0.001c-0.012-0.018-0.024-0.035-0.036-0.053
		c-0.014-0.02-0.033-0.035-0.047-0.054c-3.506-4.505-7.16-9.103-11.981-12.316c-10.466-6.973-25.475-6.14-36.502,2.026
		c-9.673,7.163-15.926,19.159-17.155,32.914c-0.776,8.681,0.346,17.9,3.406,27.975l-71.776,41.44
		c-10.569,6.103-17.134,17.474-17.134,29.678v10.906l-0.738-0.085l0.122-12.464l-80.803-9.023l13.71,28.191l-13.959,27.046
		l60.591,6.766l-0.122,12.396l21.198,2.439v29.812c0,12.204,6.565,23.576,17.134,29.678l83.125,47.992
		c5.285,3.051,11.21,4.576,17.135,4.576c5.925,0,11.849-1.525,17.134-4.576l83.124-47.992c10.57-6.101,17.135-17.473,17.135-29.678
		v-2.804l0.506,0.058l-0.12,12.162l80.889,9.032l-15.025-29.32L448.859,265.751z"/>
</g>
<g id="Objects">
	<g>
		<g>
			<path style="fill:#FFFFFF;" d="M160.472,215.818v75.667c0,8.605,4.591,16.557,12.043,20.86l65.529,37.833
				c7.452,4.303,16.634,4.303,24.087,0l65.529-37.833c7.452-4.303,12.043-12.254,12.043-20.86v-75.667
				c0-8.605-4.591-16.557-12.043-20.86l-65.529-37.833c-7.452-4.303-16.634-4.303-24.087,0l-65.529,37.833
				C165.063,199.261,160.472,207.213,160.472,215.818z"/>
			<path style="fill:#3A3A3C;" d="M250.089,356.321c-4.671,0-9.342-1.202-13.508-3.607l-65.529-37.833
				c-8.332-4.811-13.507-13.776-13.507-23.396v-75.666c0-9.62,5.175-18.585,13.507-23.396l65.529-37.833
				c8.331-4.809,18.683-4.81,27.015,0l65.529,37.833c8.332,4.811,13.508,13.775,13.508,23.396v75.666
				c0,9.621-5.176,18.586-13.508,23.396l-65.529,37.833C259.43,355.118,254.759,356.321,250.089,356.321z M250.089,156.835
				c-3.659,0-7.316,0.942-10.579,2.826l-65.529,37.834c-6.526,3.768-10.58,10.789-10.58,18.324v75.666
				c0,7.535,4.054,14.556,10.58,18.324l65.529,37.833c6.525,3.767,14.632,3.768,21.159,0l65.528-37.833
				c6.526-3.767,10.579-10.789,10.579-18.324v-75.666c0-7.535-4.053-14.557-10.579-18.324l-65.528-37.833
				C257.405,157.777,253.746,156.835,250.089,156.835z"/>
			<path style="fill:#3A3A3C;" d="M250.089,346.205c-3.98,0-7.96-1.025-11.509-3.074l-60.23-34.774
				c-7.099-4.098-11.508-11.736-11.508-19.933v-69.547c0-8.197,4.41-15.835,11.508-19.933l60.23-34.773
				c7.099-4.098,15.919-4.098,23.017,0l60.229,34.773c7.099,4.099,11.509,11.737,11.509,19.933v69.547
				c0,8.197-4.41,15.835-11.509,19.933l-60.229,34.774C258.048,345.18,254.068,346.205,250.089,346.205z M250.088,162.854
				c-3.675,0-7.351,0.946-10.63,2.839l-60.23,34.773c-6.557,3.786-10.63,10.841-10.63,18.412v69.547
				c0,7.572,4.073,14.626,10.63,18.412l60.23,34.774c6.557,3.785,14.703,3.785,21.26,0l60.23-34.774
				c6.556-3.786,10.629-10.84,10.629-18.412v-69.547c0-7.571-4.073-14.626-10.629-18.412l-60.23-34.773
				C257.44,163.8,253.764,162.854,250.088,162.854z"/>
			<path style="fill:#3A3A3C;" d="M202.341,315.125l37.385,21.584c6.413,3.702,14.313,3.702,20.726,0l37.385-21.584H202.341z"/>
		</g>
		<g>
			<g>
				<polygon style="fill:#FFFFFF;" points="155.184,256.407 95.441,249.736 105.806,229.654 95.839,209.161 155.582,215.831 				"/>
				<path style="fill:#3A3A3C;" d="M156.632,258.042l-63.468-7.087l11.004-21.321L93.36,207.411l63.699,7.113L156.632,258.042z
					 M97.718,248.518l56.018,6.254l0.369-37.632l-55.787-6.229l9.126,18.762L97.718,248.518z"/>
			</g>
			<g>
				<polygon style="fill:#3A3A3C;" points="151.906,217.599 109.729,214.582 109.729,214.582 109.729,214.582 151.537,220.915 				
					"/>
				<polygon style="fill:#3A3A3C;" points="151.906,221.775 109.729,218.758 109.729,218.758 109.729,218.758 151.537,225.091 				
					"/>
				<polygon style="fill:#3A3A3C;" points="151.906,225.952 109.729,222.934 109.729,222.934 109.729,222.934 151.537,229.267 				
					"/>
				<polygon style="fill:#3A3A3C;" points="151.906,230.128 109.729,227.111 109.729,227.111 109.729,227.111 151.537,233.443 				
					"/>
				<polygon style="fill:#3A3A3C;" points="151.906,234.304 109.729,231.287 109.729,231.287 109.729,231.287 151.537,237.619 				
					"/>
				<polygon style="fill:#3A3A3C;" points="151.906,238.48 109.729,235.463 109.729,235.463 109.729,235.463 151.537,241.795 				
					"/>
				<polygon style="fill:#3A3A3C;" points="151.906,242.656 109.729,239.639 109.729,239.639 109.729,239.639 151.537,245.972 				
					"/>
				<polygon style="fill:#3A3A3C;" points="151.906,246.833 109.729,243.815 109.729,243.815 109.729,243.815 151.537,250.148 				
					"/>
				<polygon style="fill:#3A3A3C;" points="151.906,251.009 109.729,247.991 109.729,247.991 109.729,247.991 151.537,254.324 				
					"/>
			</g>
		</g>
		<g>
			<g>
				<polygon style="fill:#FFFFFF;" points="404.157,304.27 344.414,297.599 344.812,257.024 404.555,263.695 393.187,282.863 				
					"/>
				<path style="fill:#3A3A3C;" d="M406.703,306.028l-63.766-7.12l0.428-43.519l63.606,7.102l-12.112,20.423L406.703,306.028z
					 M345.891,296.291l55.72,6.222l-10.096-19.702l10.623-17.913l-55.879-6.238L345.891,296.291z"/>
			</g>
			<g>
				<polygon style="fill:#3A3A3C;" points="347.763,296.175 389.94,299.192 389.94,299.192 389.94,299.192 348.132,292.859 				"/>
				<polygon style="fill:#3A3A3C;" points="347.763,291.999 389.94,295.016 389.94,295.016 389.94,295.016 348.132,288.683 				"/>
				<polygon style="fill:#3A3A3C;" points="347.763,287.822 389.94,290.84 389.94,290.84 389.94,290.84 348.132,284.507 				"/>
				<polygon style="fill:#3A3A3C;" points="347.763,283.646 389.94,286.664 389.94,286.664 389.94,286.664 348.132,280.331 				"/>
				<polygon style="fill:#3A3A3C;" points="347.763,279.47 389.94,282.487 389.94,282.487 389.94,282.487 348.132,276.155 				"/>
				<polygon style="fill:#3A3A3C;" points="347.763,275.294 389.94,278.311 389.94,278.311 389.94,278.311 348.132,271.979 				"/>
				<polygon style="fill:#3A3A3C;" points="347.763,271.118 389.94,274.135 389.94,274.135 389.94,274.135 348.132,267.802 				"/>
				<polygon style="fill:#3A3A3C;" points="347.763,266.941 389.94,269.959 389.94,269.959 389.94,269.959 348.132,263.626 				"/>
				<polygon style="fill:#3A3A3C;" points="347.763,262.765 389.94,265.783 389.94,265.783 389.94,265.783 348.132,259.45 				"/>
			</g>
		</g>
		<g>
			<g>
				<g>
					<path style="fill:#3A3A3C;" d="M178.182,224.249c-1.533-1.512-1.166-4.068,0.017-5.617c1.183-1.549,2.962-2.504,4.29-3.922
						c3.297-3.52,3.078-9.973-0.473-13.975c4.441,3.43,6.562,9.745,4.934,14.697c-0.546,1.661-1.466,3.417-0.749,5.145
						c1.033,2.492,4.862,2.595,6.37,0.645c1.509-1.95,1.268-4.87,0.628-7.458c-0.639-2.588-1.618-5.215-1.369-7.779
						c0.311-3.205,2.734-5.876,5.832-6.428c-3.143,1.399-3.631,5.638-3.622,9.257c0.008,3.315,0.971,7.731,4.235,8.383
						c2.232,0.446,4.143-1.481,4.544-3.669c0.401-2.188-0.304-4.527-1.006-6.754c3.1,2.803,3.995,7.779,1.981,11.004
						c-0.652,1.043-1.596,2.027-1.518,3.326c0.045,0.738,0.431,1.454,0.924,2.045c1.354,1.623,3.613,2.415,5.488,1.924
						c1.875-0.491,3.257-2.235,3.357-4.238c0.144-2.862-2.074-5.869-1.338-8.575c0.581-2.136,2.767-3.196,4.76-4.042
						c-1.333,2.481-2.666,5.148-2.447,8.11c0.22,2.962,2.631,6.196,5.531,6.199c2.806,0.003,4.541-2.882,4.864-5.682
						c0.576-4.997-2.073-10.56-6.447-13.541c2.452-0.401,5.174,1.069,6.717,3.268c1.542,2.199,1.997,4.982,1.616,7.478
						c-0.3,1.967-1.082,3.875-0.736,5.903c0.59,3.457,4.993,5.951,7.917,4.485c2.028-1.017,2.984-3.312,4.324-5.141
						c1.339-1.829,3.787-3.323,5.932-2.093c-2.311,1.499-3.345,4.682-2.451,7.547c1.99-0.501,4.384-0.022,5.969,1.554
						c1.585,1.576,2.055,4.294,0.751,5.836L178.182,224.249z"/>
					<path style="fill:#3A3A3C;" d="M326.811,240.935c1.833-1.13,2.048-3.703,1.242-5.478c-0.806-1.775-2.326-3.104-3.302-4.784
						c-2.424-4.169-0.764-10.409,3.593-13.513c-5.097,2.347-8.579,8.027-8.102,13.217c0.16,1.741,0.663,3.658-0.423,5.182
						c-1.565,2.197-5.32,1.439-6.353-0.799c-1.033-2.238-0.144-5.03,1.059-7.409s2.746-4.72,3.078-7.274
						c0.415-3.193-1.347-6.339-4.243-7.572c2.749,2.068,2.275,6.309,1.455,9.833c-0.751,3.229-2.679,7.317-6.006,7.221
						c-2.275-0.066-3.706-2.372-3.606-4.594s1.311-4.344,2.495-6.356c-3.649,2.037-5.637,6.686-4.397,10.281
						c0.401,1.163,1.101,2.334,0.734,3.581c-0.209,0.709-0.746,1.32-1.359,1.786c-1.684,1.278-4.062,1.544-5.779,0.645
						c-1.717-0.898-2.673-2.908-2.322-4.883c0.502-2.822,3.336-5.255,3.226-8.057c-0.087-2.212-1.98-3.735-3.733-5.006
						c0.743,2.717,1.445,5.614,0.567,8.452c-0.878,2.838-3.952,5.448-6.779,4.801c-2.736-0.626-3.78-3.827-3.466-6.628
						c0.559-4.999,4.387-9.827,9.318-11.752c-2.3-0.94-5.282-0.118-7.278,1.679c-1.996,1.797-3.063,4.408-3.251,6.926
						c-0.148,1.984,0.186,4.019-0.606,5.917c-1.35,3.237-6.2,4.681-8.72,2.597c-1.748-1.446-2.166-3.897-3.061-5.98
						c-0.895-2.083-2.945-4.087-5.312-3.369c1.916,1.979,2.21,5.313,0.698,7.904c-1.827-0.935-4.268-1.004-6.165,0.177
						c-1.898,1.181-2.965,3.725-2.04,5.519L326.811,240.935z"/>
				</g>
				<g>
					<path style="fill:#FFFFFF;" d="M371.118,177.022c-1.826-11.973-14.249-19.603-26.182-21.677
						c-4.359-0.758-9.037-1.095-12.604-3.713c-5.248-3.851-6.493-11.471-11.57-15.544c-8.637-6.929-21.98,0.263-32.338-3.652
						c-9.594-3.626-13.453-15.375-21.988-21.062c-8.021-5.345-19.347-4.18-27.092,1.556c-7.746,5.736-12.078,15.301-12.937,24.901
						c-0.858,9.6,1.448,19.248,4.97,28.22c4.129,10.519,9.553,19.465,16.454,26.671l-16.137,36.185l68.214,7.531l10.258-23
						c7.893-0.427,15.778-1.547,23.539-3.039c9.108-1.751,18.376-4.123,25.879-9.575S372.516,186.191,371.118,177.022z"/>
					<path style="fill:#DEDFE1;" d="M310.165,213.438c7.893-0.427,15.778-1.547,23.539-3.039c9.108-1.751,18.376-4.123,25.879-9.574
						c7.503-5.452,12.933-14.633,11.535-23.802c-1.826-11.973-14.249-19.603-26.182-21.677c-3.782-0.657-7.803-1-11.131-2.789
						c-0.871,0.126-1.752,0.217-2.66,0.233c-2.745,0.048-5.002-2.206-6.34-4.603c-1.338-2.398-2.139-5.115-3.856-7.258
						c-2.108-2.632-5.411-4.106-8.748-4.59c-3.337-0.484-6.738-0.07-10.06,0.508c1.654,2.667,0.993,6.127,1.776,9.166
						c1.306,5.074,6.43,8.238,11.469,9.674c5.039,1.435,10.407,1.695,15.263,3.661c3.224,1.306,6.134,3.342,8.563,5.832
						c2.208,2.263,4.051,4.951,4.954,7.981c1.185,3.973,0.668,8.348-1.016,12.137c-1.684,3.789-4.476,7.017-7.716,9.604
						c-3.589,2.865-7.759,4.994-12.173,6.26c-5.422,1.555-11.135,1.806-16.773,1.63c-16.411-0.513-32.7-4.612-47.398-11.928
						c9.282,14.123,22.216,25.789,37.93,32.01c-3.241,10.006-0.888,3.216-4.434,12.757c-0.087,0.233,0.152-0.197,0,0l7.324,0.809
						L310.165,213.438z"/>
					<path style="fill:#3A3A3C;" d="M300.81,238.01l-71.27-7.868l16.557-37.125c-6.556-7.054-11.963-15.941-16.081-26.431
						c-4.192-10.678-5.849-20.126-5.065-28.885c0.969-10.844,5.899-20.301,13.524-25.947c8.693-6.438,20.525-7.094,28.776-1.597
						c3.935,2.622,6.886,6.417,9.74,10.086c3.572,4.593,6.946,8.932,11.954,10.824c4.263,1.611,9.299,1.184,14.166,0.772
						c6.531-0.555,13.291-1.129,18.57,3.107c2.702,2.167,4.362,5.17,5.968,8.075c1.607,2.905,3.124,5.648,5.553,7.431
						c2.705,1.986,6.173,2.528,9.842,3.102c0.719,0.113,1.436,0.225,2.146,0.348c12.213,2.123,25.415,10.027,27.379,22.898l0,0
						c1.368,8.969-3.39,18.863-12.122,25.207c-7.797,5.666-17.326,8.072-26.463,9.828c-8.31,1.598-15.793,2.585-22.841,3.013
						L300.81,238.01z M233.847,227.672l65.159,7.193l10.186-22.841l0.893-0.048c7.176-0.389,14.811-1.375,23.342-3.015
						c8.803-1.693,17.962-3.993,25.294-9.321c7.855-5.708,12.152-14.499,10.948-22.397c-1.743-11.433-13.805-18.512-24.986-20.455
						c-0.692-0.121-1.393-0.23-2.096-0.34c-3.854-0.603-7.841-1.227-11.123-3.635c-2.947-2.164-4.694-5.321-6.382-8.375
						c-1.536-2.778-2.987-5.402-5.237-7.208c-4.366-3.502-10.252-3.002-16.491-2.474c-5.191,0.441-10.563,0.897-15.448-0.95
						c-5.778-2.184-9.566-7.055-13.23-11.766c-2.71-3.485-5.513-7.089-9.053-9.448c-7.126-4.749-17.812-4.112-25.409,1.515
						c-6.851,5.073-11.467,13.991-12.35,23.855c-0.742,8.296,0.853,17.309,4.875,27.553c4.119,10.493,9.552,19.306,16.148,26.194
						l0.68,0.711L233.847,227.672z"/>
					<path style="fill:#3A3A3C;" d="M276.786,119.991c2.622,4.01,5.605,7.923,8.722,11.647c3.137,3.724,6.471,7.29,10.043,10.601
						c3.571,3.309,7.385,6.365,11.495,8.975c2.063,1.286,4.185,2.488,6.397,3.502c2.215,1.004,4.502,1.852,6.853,2.492l0.006,0.002
						c0.179,0.049,0.285,0.233,0.236,0.412c-0.048,0.175-0.225,0.279-0.4,0.239c-2.416-0.559-4.779-1.333-7.076-2.271
						c-2.294-0.948-4.502-2.088-6.655-3.319c-4.289-2.498-8.291-5.462-12.052-8.688c-3.763-3.229-7.289-6.723-10.625-10.389
						c-3.33-3.687-6.47-7.483-9.386-11.59c-0.468-0.659-0.313-1.574,0.346-2.042c0.659-0.468,1.574-0.313,2.042,0.346
						c0.01,0.014,0.019,0.028,0.028,0.041L276.786,119.991z"/>
					<path style="fill:#3A3A3C;" d="M335.789,154.915c-2.48-0.211-4.79-0.616-7.133-1.136c-2.327-0.526-4.617-1.196-6.855-1.999
						c-2.245-0.785-4.416-1.775-6.509-2.887c-2.106-1.095-4.056-2.464-5.922-3.903c-0.138-0.107-0.164-0.305-0.057-0.443
						c0.101-0.131,0.284-0.161,0.421-0.073l0.015,0.01c1.947,1.26,3.941,2.431,6.073,3.325c2.117,0.912,4.287,1.695,6.515,2.274
						c2.221,0.596,4.475,1.06,6.745,1.381c2.255,0.314,4.591,0.518,6.781,0.525l0.055,0c0.81,0.002,1.464,0.661,1.462,1.471
						c-0.002,0.81-0.661,1.464-1.471,1.462C335.87,154.92,335.828,154.918,335.789,154.915z"/>
					<path style="fill:#3A3A3C;" d="M335.211,201.803c-1.312,1.536-2.785,2.809-4.355,4.004c-1.562,1.195-3.222,2.268-4.968,3.184
						c-3.466,1.888-7.252,3.192-11.132,3.966c-7.792,1.59-15.9,0.752-23.397-1.488c-7.5-2.321-14.51-5.931-20.89-10.328
						c-6.409-4.369-12.271-9.45-17.686-14.921c-0.099-0.1-0.098-0.261,0.002-0.36c0.094-0.093,0.245-0.096,0.345-0.012
						c5.852,4.968,11.937,9.633,18.39,13.677c6.467,4.006,13.365,7.295,20.581,9.406c7.225,2.042,14.824,2.699,22.168,1.426
						c3.664-0.642,7.26-1.725,10.653-3.303c3.387-1.548,6.662-3.56,9.424-6.034l0.033-0.03c0.24-0.215,0.608-0.194,0.822,0.045
						C335.399,201.257,335.398,201.585,335.211,201.803z"/>
					<path style="fill:#DEDFE1;" d="M232.836,132.064c-1.08,5.32-1.03,10.909-0.352,16.303c0.726,5.411,2.114,10.712,4.107,15.784
						c1.163,2.467,2.122,5.02,3.513,7.373c0.673,1.185,1.244,2.426,1.997,3.564l2.236,3.427c0.378,0.568,0.709,1.166,1.124,1.709
						l1.242,1.63l2.482,3.262c1.74,2.109,3.611,4.113,5.381,6.212l0,0l0.083,0.097c0.321,0.376,0.371,0.893,0.171,1.312
						l-16.082,33.434c-0.049,0.101-0.17,0.144-0.271,0.095c-0.097-0.047-0.14-0.161-0.1-0.26l14.128-34.306l0.254,1.409l0,0
						l-2.898-3.071c-0.944-1.044-1.964-2.025-2.847-3.123l-2.599-3.343l-1.299-1.673c-0.434-0.557-0.787-1.174-1.184-1.758
						l-2.285-3.574c-0.765-1.189-1.35-2.488-2.032-3.726c-1.411-2.458-2.403-5.127-3.5-7.733
						c-1.876-5.344-3.249-10.884-3.672-16.529c-0.437-5.634-0.184-11.329,1.413-16.812c0.08-0.273,0.365-0.43,0.639-0.35
						c0.259,0.075,0.413,0.336,0.361,0.595L232.836,132.064z"/>
				</g>
			</g>
			<polygon style="fill:#3A3A3C;" points="370.358,172.038 328.181,169.02 328.181,169.02 328.181,169.02 369.989,175.353 			"/>
			<polygon style="fill:#3A3A3C;" points="371.338,178.37 329.16,175.353 329.16,175.353 329.16,175.353 370.969,181.685 			"/>
			<polygon style="fill:#3A3A3C;" points="370.358,184.03 328.181,181.013 328.181,181.013 328.181,181.013 369.989,187.345 			"/>
			<polygon style="fill:#3A3A3C;" points="368.269,189.856 326.091,186.839 326.091,186.839 326.091,186.839 367.9,193.171 			"/>
			<polygon style="fill:#3A3A3C;" points="363.955,194.586 321.778,191.569 321.778,191.569 321.778,191.569 363.586,197.901 			"/>
			<polygon style="fill:#3A3A3C;" points="359.897,199.647 325.836,197.211 325.836,197.211 325.836,197.211 359.599,202.325 			"/>
			<polygon style="fill:#3A3A3C;" points="367.863,167.523 333.802,165.086 333.802,165.086 333.802,165.086 367.565,170.2 			"/>
			<polygon style="fill:#3A3A3C;" points="362.639,162.051 333.802,159.988 333.802,159.988 333.802,159.988 362.387,164.318 			"/>
			<polygon style="fill:#3A3A3C;" points="355.26,157.74 330.637,155.978 330.637,155.978 330.637,155.978 355.045,159.675 			"/>
			<polygon style="fill:#3A3A3C;" points="353.234,203.779 335.006,202.625 335.006,202.625 335.006,202.625 353.019,205.714 			"/>
			<g>
				<polygon style="fill:#3A3A3C;" points="308.579,216.508 290.35,215.355 290.35,215.355 290.35,215.355 308.363,218.444 				"/>
				<polygon style="fill:#3A3A3C;" points="306.702,220.15 288.473,218.997 288.473,218.997 288.473,218.997 306.486,222.085 				
					"/>
				<polygon style="fill:#3A3A3C;" points="304.825,223.792 286.596,222.638 286.596,222.638 286.596,222.638 304.609,225.727 				
					"/>
				<polygon style="fill:#3A3A3C;" points="302.947,227.433 284.719,226.28 284.719,226.28 284.719,226.28 302.732,229.369 				"/>
				<polygon style="fill:#3A3A3C;" points="301.07,231.075 282.841,229.921 282.841,229.921 282.841,229.921 300.855,233.01 				"/>
			</g>
		</g>
		<g>
			<text transform="matrix(1 0 0 1 234.2266 329.21)" style="fill:#FFFFFF; font-family:'Sofia-Regular'; font-size:12.3955px;">din 1945</text>
			<text transform="matrix(1 0 0 1 225.4277 312.0967)" style="fill:#3A3A3C; font-family:'BebasNeueBold'; font-size:12.3955px;">Mananci de rupi</text>
			<g>
				<path style="fill:#3A3A3C;" d="M224.143,307.938c0,0.62-0.503,1.123-1.123,1.123c-0.62,0-1.123-0.503-1.123-1.123
					c0-0.62,0.503-1.123,1.123-1.123C223.641,306.815,224.143,307.318,224.143,307.938z"/>
				<path style="fill:#3A3A3C;" d="M278.279,307.938c0,0.62-0.503,1.123-1.123,1.123c-0.62,0-1.123-0.503-1.123-1.123
					c0-0.62,0.503-1.123,1.123-1.123C277.776,306.815,278.279,307.318,278.279,307.938z"/>
			</g>
		</g>
		<g>
			
				<text transform="matrix(0.9891 0.1033 6.200000e-04 1 185.1894 282.491)" style="fill:#3A3A3C; font-family:'BebasNeueBook'; font-size:9.2966px;">CASA FRANKO</text>
			<g>
				
					<rect x="176.902" y="273.586" transform="matrix(0.1165 -0.9932 0.9932 0.1165 -119.5515 421.8477)" style="fill:#3A3A3C;" width="0.878" height="9.073"/>
				
					<rect x="316.896" y="289.685" transform="matrix(0.1165 -0.9932 0.9932 0.1165 -11.8588 575.1109)" style="fill:#3A3A3C;" width="0.878" height="9.073"/>
			</g>
		</g>
		<g>
			<g>
				<polygon style="fill:#FFFFFF;" points="357.469,289.507 142.31,264.758 142.708,224.183 357.867,248.932 				"/>
				<path style="fill:#3A3A3C;" d="M358.917,291.147l-218.083-25.087l0.427-43.519l218.083,25.087L358.917,291.147z
					 M143.787,263.454l212.235,24.413l0.368-37.631l-212.234-24.413L143.787,263.454z"/>
			</g>
			<polygon style="fill:#3A3A3C;" points="141.265,222.548 154.929,214.327 154.929,224.369 			"/>
			<polygon style="fill:#3A3A3C;" points="358.947,291.092 345.284,299.024 345.284,289.271 			"/>
			
				<text transform="matrix(0.9882 0.1119 -0.008 1 167.7518 261.8295)" style="fill:#3A3A3C; font-family:'BebasNeueBold'; font-size:43.634px;"></text>
			<polygon style="fill:#DEDFE1;" points="332.456,282.487 353.212,285.167 353.212,267.802 350.045,282.487 			"/>
			<polygon style="fill:#DEDFE1;" points="166.685,230.436 145.929,227.756 145.929,245.12 149.097,230.436 			"/>
		</g>
	</g>
</g>
</svg>
